# xmcd
#
# Track frame offsets:
#       151
#       15091
#       28866
#       43873
#       56893
#       71346
#       88638
#       104326
#       119373
#       130906
#       143816
#
# Disc length: 2141 seconds
#
# Revision: 1
# Processed by: cddbd v1.4PL0 Copyright (c) Steve Scherf et al.
# Submitted via: MusiCat 1.1b1
#
DISCID=94085b0b
DTITLE=Cyndi Thomson - My World
DYEAR=1900
DGENRE=
TTITLE0=My World
TTITLE1=I Always Liked The Best
TTITLE2=What I Really Meant To Say
TTITLE3=Things I Would Do
TTITLE4=If You Could Only See
TTITLE5=I'm Gone
TTITLE6=If You Were Mine
TTITLE7=Hope You're Doing Fine
TTITLE8=There Goes The Bay
TTITLE9=But I Want To
TTITLE10=I'll Be Seeing You
EXTD=2001\nCapital\n\n
EXTT0=
EXTT1=
EXTT2=
EXTT3=
EXTT4=
EXTT5=
EXTT6=
EXTT7=
EXTT8=
EXTT9=
EXTT10=
PLAYORDER=
